<svg width="80" height="20" viewBox="0 0 80 20" fill="none" xmlns="http://www.w3.org/2000/svg">
<g clip-path="url(#clip0_5_2)">
<path fill-rule="evenodd" clip-rule="evenodd" d="M40.0797 4.71791C41.7869 4.71791 43.2866 5.58444 44.1959 6.88428V0.866553C42.9516 0.320944 41.5475 0 40.0797 0C34.5909 0 30.1396 4.31672 30.1396 9.64441C30.1396 14.9721 34.5909 19.2888 40.0797 19.2888C41.5475 19.2888 42.9356 18.9839 44.1959 18.4222V14.8944C45.2078 17.5529 48.0278 19.4652 51.3434 19.4652C54.9787 19.4652 58.0184 17.166 58.7319 14.105V18.9358H63.2312V11.6022C63.2312 10.511 64.1087 9.64447 65.1775 9.64447C66.2625 9.64447 67.1241 10.5271 67.1241 11.6022V18.9358H71.6234V11.6022C71.6234 11.0085 71.8947 10.4629 72.3097 10.1098C72.6447 9.82097 73.0753 9.64447 73.5541 9.64447C74.6391 9.64447 75.5006 10.5271 75.5006 11.6022V18.9198H80V10.6394C80 8.61744 78.6597 6.88434 76.825 6.32269C76.3941 6.19431 75.9316 6.11406 75.4528 6.11406C73.8253 6.11406 72.4053 6.98062 71.6075 8.26441C71.5916 8.2965 71.5756 8.32459 71.5597 8.35269C71.5437 8.38075 71.5278 8.40884 71.5119 8.44091C70.7778 7.41391 69.7091 6.64362 68.4644 6.32269C68.0338 6.21034 67.5869 6.14616 67.1241 6.14616C65.5925 6.14616 64.2044 6.78806 63.2312 7.83112V6.30662H58.7319V11.3229C58.0187 8.27331 54.9834 5.98553 51.3434 5.98553C47.1791 5.98553 43.7966 9.00244 43.7966 12.7254C43.7966 12.8448 43.8 12.9634 43.8069 13.0813C42.8953 14.1085 41.5594 14.7474 40.0797 14.7474C37.3194 14.7474 35.0856 12.5008 35.0856 9.72466C35.0856 6.94847 37.3194 4.71791 40.0797 4.71791ZM1.73912 0.433203H18.3963L8.87109 14.9078H17.3752V18.9036H0L9.60503 4.33269H1.70721L1.73912 0.433203ZM22.1453 2.51934C17.981 2.51934 14.5985 5.53622 14.5985 9.25919C14.5985 12.9822 17.981 15.999 22.1453 15.999C26.3097 15.999 29.6922 12.9822 29.6922 9.25919C29.6922 5.53622 26.3256 2.51934 22.1453 2.51934ZM22.1453 12.2279C20.5179 12.2279 19.1936 10.896 19.1936 9.25919C19.1936 7.62237 20.5179 6.3065 22.1453 6.3065C23.7728 6.3065 25.0971 7.63841 25.0971 9.27522C25.0971 10.9121 23.7728 12.2279 22.1453 12.2279ZM48.3916 12.7093C48.3916 14.3462 49.7159 15.6781 51.3434 15.6781C52.9706 15.6781 54.295 14.3462 54.295 12.7093C54.295 11.0725 52.9706 9.74059 51.3434 9.74059C49.7159 9.74059 48.3916 11.0725 48.3916 12.7093Z" fill="white"/>
</g>
<defs>
<clipPath id="clip0_5_2">
<rect width="80" height="19.6875" fill="white"/>
</clipPath>
</defs>
</svg>
